<mxfile host="app.diagrams.net" modified="2023-12-19T12:56:05.884Z" agent="Mozilla/5.0 (Windows NT 10.0; Win64; x64) AppleWebKit/537.36 (KHTML, like Gecko) Chrome/120.0.0.0 Safari/537.36" etag="jI3aIBl_joEIg1_oyYWZ" version="22.1.11" type="device">
  <diagram name="Page-1" id="Pt6Rx4wa6-GOWIy6Qie7">
    <mxGraphModel dx="989" dy="514" grid="0" gridSize="10" guides="1" tooltips="1" connect="1" arrows="1" fold="1" page="1" pageScale="1" pageWidth="827" pageHeight="1169" math="0" shadow="0">
      <root>
        <mxCell id="0" />
        <mxCell id="1" parent="0" />
        <mxCell id="YjZIXfqQgNMWpCQyCkJH-28" value="" style="rounded=0;whiteSpace=wrap;html=1;" vertex="1" parent="1">
          <mxGeometry x="180" y="110" width="240" height="390" as="geometry" />
        </mxCell>
        <mxCell id="YjZIXfqQgNMWpCQyCkJH-1" value="Customer" style="shape=umlActor;verticalLabelPosition=bottom;verticalAlign=top;html=1;outlineConnect=0;" vertex="1" parent="1">
          <mxGeometry x="30" y="320" width="30" height="60" as="geometry" />
        </mxCell>
        <mxCell id="YjZIXfqQgNMWpCQyCkJH-23" style="rounded=0;orthogonalLoop=1;jettySize=auto;html=1;entryX=0;entryY=0.3333333333333333;entryDx=0;entryDy=0;entryPerimeter=0;exitX=1;exitY=0.5;exitDx=0;exitDy=0;" edge="1" parent="1" source="YjZIXfqQgNMWpCQyCkJH-6" target="YjZIXfqQgNMWpCQyCkJH-19">
          <mxGeometry relative="1" as="geometry">
            <mxPoint x="469.9999999999998" y="190" as="targetPoint" />
            <mxPoint x="357" y="197" as="sourcePoint" />
          </mxGeometry>
        </mxCell>
        <mxCell id="YjZIXfqQgNMWpCQyCkJH-6" value="View iterms" style="ellipse;whiteSpace=wrap;html=1;" vertex="1" parent="1">
          <mxGeometry x="240" y="170" width="120" height="40" as="geometry" />
        </mxCell>
        <mxCell id="YjZIXfqQgNMWpCQyCkJH-12" style="rounded=0;orthogonalLoop=1;jettySize=auto;html=1;exitX=1;exitY=0.3333333333333333;exitDx=0;exitDy=0;exitPerimeter=0;" edge="1" parent="1" source="YjZIXfqQgNMWpCQyCkJH-7">
          <mxGeometry relative="1" as="geometry">
            <mxPoint x="240" y="190" as="targetPoint" />
          </mxGeometry>
        </mxCell>
        <mxCell id="YjZIXfqQgNMWpCQyCkJH-24" style="rounded=0;orthogonalLoop=1;jettySize=auto;html=1;exitX=1;exitY=0.3333333333333333;exitDx=0;exitDy=0;exitPerimeter=0;" edge="1" parent="1" source="YjZIXfqQgNMWpCQyCkJH-7" target="YjZIXfqQgNMWpCQyCkJH-17">
          <mxGeometry relative="1" as="geometry" />
        </mxCell>
        <mxCell id="YjZIXfqQgNMWpCQyCkJH-32" style="rounded=0;orthogonalLoop=1;jettySize=auto;html=1;exitX=1;exitY=0.3333333333333333;exitDx=0;exitDy=0;exitPerimeter=0;entryX=0;entryY=0.5;entryDx=0;entryDy=0;" edge="1" parent="1" source="YjZIXfqQgNMWpCQyCkJH-7" target="YjZIXfqQgNMWpCQyCkJH-29">
          <mxGeometry relative="1" as="geometry" />
        </mxCell>
        <mxCell id="YjZIXfqQgNMWpCQyCkJH-7" value="Registered &lt;br&gt;Customer" style="shape=umlActor;verticalLabelPosition=bottom;verticalAlign=top;html=1;outlineConnect=0;" vertex="1" parent="1">
          <mxGeometry x="120" y="240" width="30" height="60" as="geometry" />
        </mxCell>
        <mxCell id="YjZIXfqQgNMWpCQyCkJH-11" style="rounded=0;orthogonalLoop=1;jettySize=auto;html=1;exitX=1;exitY=0.3333333333333333;exitDx=0;exitDy=0;exitPerimeter=0;entryX=0;entryY=0.5;entryDx=0;entryDy=0;" edge="1" parent="1" source="YjZIXfqQgNMWpCQyCkJH-8" target="YjZIXfqQgNMWpCQyCkJH-6">
          <mxGeometry relative="1" as="geometry" />
        </mxCell>
        <mxCell id="YjZIXfqQgNMWpCQyCkJH-14" style="rounded=0;orthogonalLoop=1;jettySize=auto;html=1;exitX=1;exitY=0.3333333333333333;exitDx=0;exitDy=0;exitPerimeter=0;entryX=0;entryY=0.5;entryDx=0;entryDy=0;" edge="1" parent="1" source="YjZIXfqQgNMWpCQyCkJH-8" target="YjZIXfqQgNMWpCQyCkJH-13">
          <mxGeometry relative="1" as="geometry" />
        </mxCell>
        <mxCell id="YjZIXfqQgNMWpCQyCkJH-31" style="rounded=0;orthogonalLoop=1;jettySize=auto;html=1;exitX=1;exitY=0.3333333333333333;exitDx=0;exitDy=0;exitPerimeter=0;entryX=0;entryY=0.5;entryDx=0;entryDy=0;" edge="1" parent="1" source="YjZIXfqQgNMWpCQyCkJH-8" target="YjZIXfqQgNMWpCQyCkJH-29">
          <mxGeometry relative="1" as="geometry" />
        </mxCell>
        <mxCell id="YjZIXfqQgNMWpCQyCkJH-8" value="Unregistered &lt;br&gt;Customer" style="shape=umlActor;verticalLabelPosition=bottom;verticalAlign=top;html=1;outlineConnect=0;" vertex="1" parent="1">
          <mxGeometry x="120" y="380" width="30" height="60" as="geometry" />
        </mxCell>
        <mxCell id="YjZIXfqQgNMWpCQyCkJH-9" style="rounded=0;orthogonalLoop=1;jettySize=auto;html=1;exitX=0;exitY=0.3333333333333333;exitDx=0;exitDy=0;exitPerimeter=0;entryX=1;entryY=0.3333333333333333;entryDx=0;entryDy=0;entryPerimeter=0;endArrow=classic;endFill=1;startArrow=none;startFill=0;" edge="1" parent="1" source="YjZIXfqQgNMWpCQyCkJH-7" target="YjZIXfqQgNMWpCQyCkJH-1">
          <mxGeometry relative="1" as="geometry" />
        </mxCell>
        <mxCell id="YjZIXfqQgNMWpCQyCkJH-10" style="rounded=0;orthogonalLoop=1;jettySize=auto;html=1;exitX=0;exitY=0.3333333333333333;exitDx=0;exitDy=0;exitPerimeter=0;entryX=1;entryY=0.3333333333333333;entryDx=0;entryDy=0;entryPerimeter=0;endArrow=classic;endFill=1;startArrow=none;startFill=0;" edge="1" parent="1" source="YjZIXfqQgNMWpCQyCkJH-8" target="YjZIXfqQgNMWpCQyCkJH-1">
          <mxGeometry relative="1" as="geometry">
            <mxPoint x="130" y="270" as="sourcePoint" />
            <mxPoint x="70" y="350" as="targetPoint" />
          </mxGeometry>
        </mxCell>
        <mxCell id="YjZIXfqQgNMWpCQyCkJH-13" value="Client Register&lt;br&gt;" style="ellipse;whiteSpace=wrap;html=1;" vertex="1" parent="1">
          <mxGeometry x="240" y="400" width="120" height="40" as="geometry" />
        </mxCell>
        <mxCell id="YjZIXfqQgNMWpCQyCkJH-25" style="edgeStyle=orthogonalEdgeStyle;rounded=0;orthogonalLoop=1;jettySize=auto;html=1;entryX=0.5;entryY=1;entryDx=0;entryDy=0;dashed=1;" edge="1" parent="1" source="YjZIXfqQgNMWpCQyCkJH-17" target="YjZIXfqQgNMWpCQyCkJH-6">
          <mxGeometry relative="1" as="geometry" />
        </mxCell>
        <mxCell id="YjZIXfqQgNMWpCQyCkJH-26" style="edgeStyle=orthogonalEdgeStyle;rounded=0;orthogonalLoop=1;jettySize=auto;html=1;entryX=0.5;entryY=0;entryDx=0;entryDy=0;dashed=1;" edge="1" parent="1" source="YjZIXfqQgNMWpCQyCkJH-17" target="YjZIXfqQgNMWpCQyCkJH-18">
          <mxGeometry relative="1" as="geometry" />
        </mxCell>
        <mxCell id="YjZIXfqQgNMWpCQyCkJH-17" value="make purchase" style="ellipse;whiteSpace=wrap;html=1;" vertex="1" parent="1">
          <mxGeometry x="240" y="250" width="120" height="40" as="geometry" />
        </mxCell>
        <mxCell id="YjZIXfqQgNMWpCQyCkJH-18" value="checkout" style="ellipse;whiteSpace=wrap;html=1;" vertex="1" parent="1">
          <mxGeometry x="240" y="320" width="120" height="40" as="geometry" />
        </mxCell>
        <mxCell id="YjZIXfqQgNMWpCQyCkJH-19" value="System" style="shape=umlActor;verticalLabelPosition=bottom;verticalAlign=top;html=1;outlineConnect=0;" vertex="1" parent="1">
          <mxGeometry x="470" y="280" width="30" height="60" as="geometry" />
        </mxCell>
        <mxCell id="YjZIXfqQgNMWpCQyCkJH-22" style="rounded=0;orthogonalLoop=1;jettySize=auto;html=1;exitX=1;exitY=0.5;exitDx=0;exitDy=0;entryX=0;entryY=0.3333333333333333;entryDx=0;entryDy=0;entryPerimeter=0;" edge="1" parent="1" source="YjZIXfqQgNMWpCQyCkJH-13" target="YjZIXfqQgNMWpCQyCkJH-19">
          <mxGeometry relative="1" as="geometry" />
        </mxCell>
        <mxCell id="YjZIXfqQgNMWpCQyCkJH-27" style="rounded=0;orthogonalLoop=1;jettySize=auto;html=1;entryX=0;entryY=0.3333333333333333;entryDx=0;entryDy=0;entryPerimeter=0;exitX=1;exitY=0.5;exitDx=0;exitDy=0;" edge="1" parent="1" source="YjZIXfqQgNMWpCQyCkJH-18" target="YjZIXfqQgNMWpCQyCkJH-19">
          <mxGeometry relative="1" as="geometry" />
        </mxCell>
        <mxCell id="YjZIXfqQgNMWpCQyCkJH-29" value="Search items" style="ellipse;whiteSpace=wrap;html=1;" vertex="1" parent="1">
          <mxGeometry x="242" y="452" width="120" height="40" as="geometry" />
        </mxCell>
        <mxCell id="YjZIXfqQgNMWpCQyCkJH-30" style="rounded=0;orthogonalLoop=1;jettySize=auto;html=1;entryX=0;entryY=0.3333333333333333;entryDx=0;entryDy=0;entryPerimeter=0;exitX=1;exitY=0.5;exitDx=0;exitDy=0;" edge="1" parent="1" source="YjZIXfqQgNMWpCQyCkJH-29" target="YjZIXfqQgNMWpCQyCkJH-19">
          <mxGeometry relative="1" as="geometry" />
        </mxCell>
      </root>
    </mxGraphModel>
  </diagram>
</mxfile>
